# xmcd
#
# Track frame offsets: 
#        150
#        20991
#        44387
#        64418
#        81641
#        108838
#        126404
#        148847
#        179501
#        195767
#        214069
#        236364
#
# Disc length: 3416 seconds
#
# Revision: 0
# Processed by: cddbd v1.5.2PL0 Copyright (c) Steve Scherf et al.
# Submitted via: ExactAudioCopy v0.95a5
#
DISCID=b50d560c
DTITLE=Various Artist - Beginners Guide to African Blues - CD3
DYEAR=2010
DGENRE=Blues
TTITLE0=Justin Adams and Juideh Camara - Fulani Coochie Man (Gambia-UK)
TTITLE1=Isnebe and Faadah Kawtal - Gouma (Cameroon)
TTITLE2=Geoffrey Oryema - Ye Ye Ye (Uganda)
TTITLE3=Charles Kely - Zoma (Madagaskar)
TTITLE4=Menwar - Melodi La Mer (Mauritius)
TTITLE5=D'Gary - Very Ny Bado (Madagaskar)
TTITLE6=Ba Cissoke - Manssani (Guinea)
TTITLE7=Pierre Akendengue - Izimi (Gabon)
TTITLE8=Granmoun Lélé - Inéti (Réunion Island)
TTITLE9=Mounira - Annil (Chad)
TTITLE10=Bonga - Mona Ki Ngi Xica (Angola)
TTITLE11=Sia Tolno - La Penqui Choevuh (Guinea)
EXTD=
EXTT0=
EXTT1=
EXTT2=
EXTT3=
EXTT4=
EXTT5=
EXTT6=
EXTT7=
EXTT8=
EXTT9=
EXTT10=
EXTT11=
PLAYORDER=
